<?xml version="1.0" encoding="UTF-8"?><svg id="a" xmlns="http://www.w3.org/2000/svg" viewBox="0 0 800 800"><path d="M649.87,150.34c-137.7-137.69-361.77-137.71-499.49-.05-137.72,137.66-137.74,361.68-.05,499.37,137.7,137.69,361.77,137.71,499.49.05,5.61-5.61,10.66-11.58,15.8-17.49l33.09,33.09c10.49-11.81,20.3-24.24,29.35-37.24l-33.31-33.31c90.67-137.03,75.72-323.81-44.88-444.41ZM399.91,712.5c-172.59-.05-312.46-139.98-312.41-312.54h0c0-172.56,139.91-312.46,312.5-312.46s312.5,139.89,312.5,312.46v.18c-.05,172.56-140,312.42-312.59,312.37Z" style="fill:#fff;"/><path d="M712.5,399.96c0-172.56-139.91-312.46-312.5-312.46S87.5,227.39,87.5,399.96h0c-.05,172.56,139.82,312.5,312.41,312.54,172.59.05,312.54-139.8,312.59-312.37v-.18ZM593.84,540.84c-26.12,22.22-58.99,39.56-98.62,52.05-25.75,8.26-46.29,12.39-61.63,12.39-4.2,0-6.3-1.65-6.3-4.96,0-3.12,1.28-5.05,3.84-5.78,13.15-4.41,24.38-8.72,33.69-12.94,35.79-16.34,65.74-37.63,89.85-63.89,24.65-26.62,36.98-57.28,36.98-91.98,0-25.52-7.85-47.09-23.56-64.71-17.35-20.01-40.18-30.02-68.48-30.02-40.91,0-88.21,22.77-141.9,68.3v37.45c0,21.3.73,44.98,2.19,71.05.18,6.79.55,15.24,1.1,25.34.36,6.98.55,11.29.55,12.94,0,10.46-.18,21.2-.55,32.22-1.64,34.15-10.96,51.22-27.94,51.22-13.33,0-20.46-12.03-21.37-36.08-1.28-19.28-18.08-44.61-50.4-76.01-13.33,19.83-22.28,32.41-26.85,37.73-6.39,6.79-14.24,10.19-23.56,10.19-4.75,0-8.95-1.56-12.6-4.68-3.66-3.3-5.48-7.53-5.48-12.67,0-11.02,3.92-21.2,11.78-30.57,46.38-54.53,72.04-84.82,76.97-90.88,22.64-29.19,37.16-49.29,43.56-60.31.36-12.85.55-23.59.55-32.22v-12.94c-5.85,2.2-19.27,8.17-40.27,17.9-6.94,3.86-12.97,7.99-18.08,12.39-4.75,4.23-9.04,6.33-12.87,6.33-7.12,0-13.88-3.21-20.27-9.64-17.17-17.25-25.75-31.76-25.75-43.51,0-4.22.82-7.8,2.47-10.74,1.46-2.2,2.92-3.3,4.38-3.3.91,0,2.74,1.65,5.48,4.96,9.68,12.49,19.27,18.73,28.76,18.73,13.33,0,39.54-8.26,78.62-24.78,1.46-45.16,2.19-69.4,2.19-72.7,0-15.79-2.29-25.98-6.85-30.57-2.92-2.93-9.77-6.42-20.54-10.46-5.3-1.83-7.94-4.13-7.94-6.88s3.47-5.51,10.41-8.26c5.84-2.38,11.68-3.58,17.53-3.58,10.23,0,21.46,4.13,33.69,12.39,12.42,8.26,20.72,14.69,24.93,19.28,3.65,4.41,5.48,9.09,5.48,14.04,0,5.51-2.65,10.56-7.94,15.15-5.11,5.14-8.13,10.56-9.04,16.25-2.19,14.14-3.47,27.36-3.84,39.66,2.01-.73,3.92-1.1,5.75-1.1,2.37,0,5.11.83,8.22,2.48,5.29,2.57,10.32,5.69,15.07,9.36,4.2,3.67,6.3,7.71,6.3,12.12v1.38c-.18,1.84-4.11,6.52-11.78,14.04-7.85,8.63-18.17,24.42-30.95,47.37l-.55,15.7c33.24-26.07,62.36-44.34,87.38-54.8,22.64-9.36,45.75-14.04,69.3-14.04,41.27,0,74.33,12.21,99.16,36.63,22.46,21.66,33.69,50.12,33.69,85.37,0,44.61-17.99,82.16-53.96,112.63Z" style="fill:#2e003e;"/><path d="M305.66,530.92c6.75,3.3,11.23,4.96,13.42,4.96,2.56,0,3.84-3.95,3.84-11.84,0-38.37.18-69.21.55-92.53-20.09,25.71-38.62,51.13-55.61,76.28,15.7,10.28,28.3,17.99,37.8,23.13Z" style="fill:#2e003e;"/><path d="M614.11,342.84c-24.84-24.41-57.89-36.63-99.16-36.63-23.56,0-46.66,4.68-69.3,14.04-25.02,10.46-54.15,28.73-87.38,54.8l.55-15.7c12.78-22.95,23.1-38.73,30.95-47.37,7.67-7.53,11.59-12.21,11.78-14.04v-1.38c0-4.41-2.1-8.44-6.3-12.12-4.75-3.67-9.77-6.79-15.07-9.36-3.11-1.65-5.85-2.48-8.22-2.48-1.83,0-3.75.37-5.75,1.1.36-12.3,1.64-25.52,3.84-39.66.91-5.69,3.92-11.11,9.04-16.25,5.29-4.59,7.94-9.64,7.94-15.15,0-4.96-1.83-9.64-5.48-14.04-4.2-4.59-12.51-11.02-24.93-19.28-12.24-8.26-23.47-12.39-33.69-12.39-5.85,0-11.69,1.2-17.53,3.58-6.94,2.75-10.41,5.51-10.41,8.26s2.65,5.05,7.94,6.88c10.77,4.04,17.62,7.53,20.54,10.46,4.56,4.59,6.85,14.78,6.85,30.57,0,3.3-.73,27.54-2.19,72.7-39.08,16.52-65.29,24.78-78.62,24.78-9.5,0-19.09-6.24-28.76-18.73-2.74-3.3-4.57-4.96-5.48-4.96-1.46,0-2.92,1.1-4.38,3.3-1.64,2.94-2.47,6.52-2.47,10.74,0,11.75,8.58,26.26,25.75,43.51,6.39,6.43,13.15,9.64,20.27,9.64,3.84,0,8.12-2.11,12.87-6.33,5.11-4.41,11.14-8.54,18.08-12.39,21-9.73,34.42-15.7,40.27-17.9v12.94c0,8.63-.18,19.37-.55,32.22-6.39,11.02-20.91,31.12-43.56,60.31-4.93,6.06-30.59,36.35-76.97,90.88-7.85,9.36-11.78,19.55-11.78,30.57,0,5.14,1.82,9.36,5.48,12.67,3.65,3.12,7.85,4.68,12.6,4.68,9.31,0,17.16-3.39,23.56-10.19,4.56-5.32,13.51-17.9,26.85-37.73,32.32,31.39,49.12,56.73,50.4,76.01.91,24.05,8.03,36.08,21.37,36.08,16.98,0,26.3-17.07,27.94-51.22.36-11.02.55-21.76.55-32.22,0-1.65-.18-5.96-.55-12.94-.55-10.09-.92-18.54-1.1-25.34-1.46-26.07-2.19-49.75-2.19-71.05v-37.45c53.69-45.53,100.99-68.3,141.9-68.3,28.3,0,51.13,10.01,68.48,30.02,15.7,17.62,23.56,39.2,23.56,64.71,0,34.7-12.33,65.36-36.98,91.98-24.11,26.26-54.06,47.55-89.85,63.89-9.31,4.23-20.54,8.54-33.69,12.94-2.56.74-3.84,2.66-3.84,5.78,0,3.3,2.1,4.96,6.3,4.96,15.34,0,35.89-4.13,61.63-12.39,39.63-12.48,72.5-29.83,98.62-52.05,35.97-30.47,53.96-68.02,53.96-112.63,0-35.25-11.23-63.7-33.69-85.37ZM322.92,524.04c0,7.9-1.28,11.84-3.84,11.84-2.19,0-6.67-1.65-13.42-4.96-9.5-5.14-22.1-12.85-37.8-23.13,16.98-25.15,35.52-50.58,55.61-76.28-.37,23.32-.55,54.16-.55,92.53Z" style="fill:#fff;"/><path d="M683.17,117.05h0c-156.06-156.05-410-156.07-566.09-.05-156.09,156.02-156.11,409.9-.05,565.95,156.06,156.05,410,156.07,566.09.05,5.61-5.61,10.59-11.62,15.8-17.49l-.21-.21-33.09-33.09c-5.15,5.91-10.19,11.88-15.8,17.49-137.72,137.66-361.79,137.64-499.49-.05-137.7-137.69-137.68-361.7.05-499.37,137.72-137.66,361.79-137.64,499.49.05,120.6,120.59,135.55,307.37,44.88,444.41l33.31,33.31.33.33c108.6-155.93,93.77-372.35-45.22-511.34Z" style="fill:#888;"/></svg>